:SAMPLES-PER-SECOND 30
:FULLY-SPECIFIED
:DEGREES
1102
root  34.5341 37.1775 0.554584 112.279 80.6043 117.902
RightUpLeg  -21.7319 -8.23805 -8.48722
RightLeg  1.02949 6.53225 -1.92665
RightFoot  -5.8772 -0.453559 8.47882
RightToes  2.32829e-010 0 -3.6325e-017
Spine  19.9737 -1.83508 -0.946588
Spine1  11.5965 1.20095 -11.0902
HEad  -14.345 17.5015 31.7364
LeftShoulder1  1.2078 -2.59286 -12.761
LeftArm  -11.3659 20.1125 -41.6477
LeftForeArm  61.1038 -78.6129 -63.4169
LeftHand  -0.0456454 1.18138 1.10018
RightShoulder  -2.57166 -8.54665 43.8791
RightArm  2.31017 -10.2517 23.949
RightForeArm  74.8031 78.8118 97.3385
RightHand  -0.203139 2.81454 -3.0867
LeftUpLeg  5.09953 6.92882 -8.21516
LeftLeg  27.0893 -1.27473 -0.350699
LeftFoot  -22.1553 0.573844 4.66211
LeftToes  -3.54706e-010 1.16038e-010 5.28031e-012
1103
root  35.881 36.9304 0.482759 121.168 80.5401 126.479
RightUpLeg  -22.7313 -9.12438 -8.28667
RightLeg  5.81635 5.94526 -0.507648
RightFoot  -0.212335 -0.59753 6.66273
RightToes  2.32829e-010 0 -3.6325e-017
Spine  19.6254 -3.1414 2.38441
Spine1  12.5639 0.776363 -12.3072
HEad  -15.129 17.3478 31.0184
LeftShoulder1  1.171 -2.45344 -12.5929
LeftArm  -11.3144 21.2901 -41.9733
LeftForeArm  62.4564 -78.7189 -64.2397
LeftHand  -0.0292649 1.38249 0.636835
RightShoulder  -2.64369 -8.64914 44.1961
RightArm  2.95818 -10.3433 23.5595
RightForeArm  73.1542 78.8494 95.6636
RightHand  -0.271317 3.21222 -3.90172
LeftUpLeg  5.76132 4.30143 -7.95
LeftLeg  29.6628 -0.157475 0.259632
LeftFoot  -23.6618 0.408146 2.49326
LeftToes  -3.54706e-010 1.16038e-010 5.28031e-012
1104
root  37.0286 36.6418 0.526922 131.791 81.3146 136.825
RightUpLeg  -25.0197 -9.66936 -7.09572
RightLeg  11.1889 5.68545 1.0553
RightFoot  9.50785 -0.565027 3.25905
RightToes  2.32829e-010 0 -3.6325e-017
Spine  20.9826 -4.37908 6.9581
Spine1  12.1141 0.811304 -13.9874
HEad  -16.7639 16.7273 29.9889
LeftShoulder1  1.17925 -2.50158 -12.5718
LeftArm  -10.928 21.9424 -41.7338
LeftForeArm  61.4159 -78.5944 -62.7291
LeftHand  -0.0241166 1.45729 0.454732
RightShoulder  -2.94207 -9.07953 45.4761
RightArm  3.51094 -10.153 22.4544
RightForeArm  71.3058 78.8638 94.061
RightHand  -0.272748 3.32704 -3.8767
LeftUpLeg  3.85352 3.27595 -5.82777
LeftLeg  36.6858 -0.704554 -0.248191
LeftFoot  -23.7712 -0.00237923 -1.36155
LeftToes  -3.54706e-010 1.16038e-010 5.28031e-012
1105
root  38.0682 36.2263 0.703675 142.255 82.3749 145.954
RightUpLeg  -28.9863 -9.55723 -4.95199
RightLeg  18.1651 5.68781 1.96509
RightFoot  10.9747 -0.361026 2.2264
RightToes  2.32829e-010 0 -3.6325e-017
Spine  22.275 -5.03906 10.1783
Spine1  10.8661 0.962414 -14.7734
HEad  -18.3321 17.3308 29.0246
LeftShoulder1  1.26803 -3.11662 -12.0459
LeftArm  -11.5296 22.8236 -42.5548
LeftForeArm  59.0018 -78.3315 -60.1869
LeftHand  -0.0532481 0.883683 1.27398
RightShoulder  -2.93138 -9.05537 45.4976
RightArm  3.51825 -10.075 22.5059
RightForeArm  68.8477 78.8871 91.6201
RightHand  -0.267081 3.72506 -3.65429
LeftUpLeg  -2.32167 4.08737 -2.85667
LeftLeg  48.4587 -1.7843 -1.73217
LeftFoot  -19.6981 -0.323854 -6.48228
LeftToes  -3.54706e-010 1.16038e-010 5.28031e-012
1106
root  38.9307 35.9969 0.926254 156.953 82.7321 160.118
RightUpLeg  -31.4149 -10.8641 -2.12428
RightLeg  23.7504 6.1366 2.72204
RightFoot  10.6371 0.45308 -1.9775
RightToes  2.32829e-010 0 -3.6325e-017
Spine  24.4878 -5.74041 12.7319
Spine1  10.3682 0.802169 -14.3648
HEad  -19.8833 18.0849 28.6762
LeftShoulder1  1.33553 -3.81263 -11.0461
LeftArm  -12.7529 23.2488 -44.2689
LeftForeArm  60.337 -78.4301 -60.6879
LeftHand  -0.0372368 1.08241 0.856982
RightShoulder  -2.88578 -8.98824 45.3322
RightArm  3.02485 -9.24382 22.6253
RightForeArm  68.7675 78.846 92.3881
RightHand  -0.294975 3.8318 -3.96778
LeftUpLeg  -9.34056 4.52758 0.0684804
LeftLeg  59.7731 -1.31848 -1.7236
LeftFoot  -7.83431 0.214662 -7.79147
LeftToes  -3.54706e-010 1.16038e-010 5.28031e-012
1107
root  39.6828 35.8576 1.18161 166.832 82.1277 170.367
RightUpLeg  -31.8128 -11.461 -0.783676
RightLeg  27.6989 5.46654 2.86369
RightFoot  8.24075 0.632587 -3.32294
RightToes  2.32829e-010 0 -3.6325e-017
Spine  27.1782 -6.37183 13.8869
Spine1  10.2275 0.438703 -13.5285
HEad  -22.1264 17.0454 27.515
LeftShoulder1  1.37279 -4.442 -9.96542
LeftArm  -13.0408 22.3402 -45.497
LeftForeArm  57.8937 -78.1116 -57.7992
LeftHand  -0.0437575 1.46893 1.08601
RightShoulder  -2.94595 -9.08122 45.514
RightArm  1.75459 -7.43661 22.6572
RightForeArm  71.4517 78.8697 94.0785
RightHand  -0.232139 2.94852 -3.46354
LeftUpLeg  -15.4282 4.44335 1.61542
LeftLeg  68.3867 0.0272015 0.776675
LeftFoot  3.68724 0.568847 -4.28137
LeftToes  -3.54706e-010 1.16038e-010 5.28031e-012
1108
root  40.4154 35.8881 1.35744 168.715 82.0285 172.044
RightUpLeg  -31.9601 -11.3211 -0.289252
RightLeg  29.9422 4.85549 2.77311
RightFoot  6.10834 0.630042 -3.8307
RightToes  2.32829e-010 0 -3.6325e-017
Spine  29.0824 -6.72727 14.3063
Spine1  10.0697 0.333041 -13.5441
HEad  -24.1943 15.3162 25.5597
LeftShoulder1  1.44245 -5.14508 -9.29002
LeftArm  -13.3817 21.3719 -46.4208
LeftForeArm  55.3059 -77.7787 -55.4449
LeftHand  -0.0687801 1.64258 1.88674
RightShoulder  -2.91703 -9.04839 45.3247
RightArm  0.707596 -5.54819 23.4936
RightForeArm  69.8479 78.9097 92.0078
RightHand  -0.232231 2.38259 -3.66709
LeftUpLeg  -20.3579 4.50795 1.8243
LeftLeg  72.9736 -0.207226 0.166722
LeftFoot  3.5346 0.209345 -1.73063
LeftToes  -3.54706e-010 1.16038e-010 5.28031e-012
1109
root  41.1662 36.0807 1.50658 168.168 81.9644 170.383
RightUpLeg  -32.1269 -11.5155 -0.10483
RightLeg  30.5527 4.89128 2.86263
RightFoot  4.53169 0.63518 -4.32137
RightToes  2.32829e-010 0 -3.6325e-017
Spine  30.0916 -6.83563 14.2472
Spine1  9.77594 0.165633 -13.6346
HEad  -25.9978 13.7472 23.5091
LeftShoulder1  1.49232 -5.51053 -9.15936
LeftArm  -13.6622 19.9004 -46.8134
LeftForeArm  51.9077 -77.277 -52.2834
LeftHand  -0.0775859 1.06499 1.95054
RightShoulder  -2.83201 -8.91717 45.0623
RightArm  -0.0191033 -4.34286 24.3838
RightForeArm  67.798 78.9283 89.6305
RightHand  -0.256707 2.47028 -3.98836
LeftUpLeg  -25.4191 4.35717 1.29843
LeftLeg  74.3827 -1.09122 -3.32834
LeftFoot  1.45996 0.0828211 -0.826536
LeftToes  -3.54706e-010 1.16038e-010 5.28031e-012
1110
root  41.844 36.302 1.62814 168.326 81.8237 169.434
RightUpLeg  -32.0207 -11.7875 0.10231
RightLeg  30.4724 4.99415 2.91628
RightFoot  3.12864 0.55309 -4.18524
RightToes  2.32829e-010 0 -3.6325e-017
Spine  31.311 -6.89031 14.6171
Spine1  9.20399 0.158993 -13.8564
HEad  -28.1061 11.8904 21.8323
LeftShoulder1  1.51542 -5.88246 -8.7036
LeftArm  -14.0046 18.2 -47.8262
LeftForeArm  49.6813 -76.8524 -49.8016
LeftHand  -0.0847681 0.425614 1.96714
RightShoulder  -2.9239 -9.03316 45.5646
RightArm  -0.722035 -3.22772 24.0925
RightForeArm  64.2279 78.865 87.329
RightHand  -0.318172 2.8946 -4.69459
LeftUpLeg  -29.6428 4.04221 0.680919
LeftLeg  72.9708 -1.63813 -5.06246
LeftFoot  -0.502484 0.0765396 -0.793095
LeftToes  -3.54706e-010 1.16038e-010 5.28031e-012
1111
root  42.5134 36.5891 1.74296 166.427 82.2063 166.293
RightUpLeg  -31.7856 -11.6298 0.182013
RightLeg  29.7169 5.36683 3.05778
RightFoot  2.39492 0.52366 -4.2062
RightToes  2.32829e-010 0 -3.6325e-017
Spine  32.5508 -6.69192 14.9006
Spine1  8.28882 0.514784 -14.6202
HEad  -30.0916 9.87402 19.9075
LeftShoulder1  1.53727 -6.40305 -8.00139
LeftArm  -14.5879 16.8569 -48.9435
LeftForeArm  49.2026 -76.6532 -48.5243
LeftHand  -0.0825925 -0.357406 1.71771
RightShoulder  -3.01302 -9.16122 45.9048
RightArm  -1.73843 -3.04413 24.012
RightForeArm  65.2257 78.8645 88.5443
RightHand  -0.345241 2.35245 -5.36879
LeftUpLeg  -32.8277 4.56879 -0.0156909
LeftLeg  68.7773 -1.90745 -4.72283
LeftFoot  -2.60993 0.0813828 -0.829968
LeftToes  -3.54706e-010 1.16038e-010 5.28031e-012
1112
root  43.1374 36.8794 1.83799 164.133 82.3746 162.597
RightUpLeg  -31.6938 -11.9079 0.21943
RightLeg  28.7299 5.92484 3.25988
RightFoot  1.94167 0.51603 -4.31298
RightToes  2.32829e-010 0 -3.6325e-017
Spine  33.7591 -6.56279 14.61
Spine1  7.46525 0.527189 -15.0041
HEad  -31.9836 8.33312 18.4285
LeftShoulder1  1.52785 -6.83748 -7.16609
LeftArm  -15.4098 15.9539 -50.1185
LeftForeArm  49.6501 -76.7287 -48.8757
LeftHand  -0.0892884 0.218353 1.99637
RightShoulder  -2.9883 -9.12013 45.8581
RightArm  -2.54477 -2.62194 24.3497
RightForeArm  64.5295 78.8608 87.8115
RightHand  -0.319614 2.70455 -4.78983
LeftUpLeg  -35.066 4.8875 -0.82539
LeftLeg  62.0152 -2.0476 -3.55879
LeftFoot  -4.09983 0.0302199 -0.115034
LeftToes  -3.54706e-010 1.16038e-010 5.28031e-012
1113
root  43.6962 37.1674 1.918 160.617 82.4957 157.853
RightUpLeg  -31.5168 -12.803 0.259252
RightLeg  27.617 6.99689 3.72291
RightFoot  1.90579 0.576055 -4.84213
RightToes  2.32829e-010 0 -3.6325e-017
Spine  34.9407 -6.57253 14.1107
Spine1  7.22997 0.593918 -15.6344
HEad  -34.239 6.71097 16.9897
LeftShoulder1  1.50493 -7.02386 -6.62623
LeftArm  -15.6293 14.2165 -50.4295
LeftForeArm  49.1054 -76.6048 -48.2534
LeftHand  -0.0790029 0.736879 1.8972
RightShoulder  -3.02084 -9.16634 45.9815
RightArm  -3.09272 -1.52509 24.8703
RightForeArm  62.3022 78.8215 86.1465
RightHand  -0.36739 3.50057 -5.04042
LeftUpLeg  -35.7696 5.71107 -1.50565
LeftLeg  52.7971 -3.08631 -3.86707
LeftFoot  -5.38741 0.0835609 -0.992641
LeftToes  -3.54706e-010 1.16038e-010 5.28031e-012
